<svg xmlns="http://www.w3.org/2000/svg" width="500" height="500" viewBox="0 0 500 500">
<g>
<path d="M 186.00 358.56 C174.75,361.02 152.46,361.30 142.50,359.12 C138.10,358.15 133.60,357.03 132.50,356.62 C122.00,352.71 118.89,351.48 115.00,349.68 C112.53,348.53 108.93,346.51 107.00,345.19 L 103.50 342.79 L 108.00 343.38 C127.18,345.92 136.72,345.21 152.81,340.06 C163.85,336.53 180.80,327.13 188.00,320.55 C190.48,318.28 193.58,315.54 194.90,314.46 L 197.30 312.50 L 196.69 316.42 C196.03,320.62 194.75,321.96 191.37,321.98 C188.79,322.00 183.57,328.45 184.40,330.59 C184.84,331.76 185.41,331.85 186.98,331.01 C188.58,330.15 189.58,330.37 191.86,332.05 C193.45,333.23 195.79,334.02 197.11,333.84 C199.30,333.53 199.50,333.03 199.51,328.00 L 199.51 322.50 L 205.51 322.19 C208.80,322.02 212.92,322.14 214.65,322.47 L 217.80 323.05 L 215.45 327.69 L 213.10 332.34 L 215.12 335.17 C216.55,337.17 217.99,338.00 220.07,338.00 C221.68,338.00 223.00,338.39 223.00,338.86 C223.00,342.79 198.50,355.83 186.00,358.56 ZM 130.71 333.90 C120.01,335.41 116.56,335.17 101.50,331.87 C95.24,330.50 81.89,324.84 78.38,322.08 C75.25,319.62 75.63,319.58 83.50,321.48 C96.54,324.63 108.13,322.53 124.46,314.08 C135.85,308.18 138.12,306.56 148.44,296.99 L 155.93 290.05 L 159.21 293.05 C161.02,294.71 164.14,296.56 166.15,297.16 C170.07,298.34 175.01,302.32 174.98,304.29 C174.98,304.96 174.57,306.14 174.07,306.92 C173.55,307.74 173.54,309.30 174.05,310.64 C174.83,312.67 174.22,313.48 168.82,317.64 C162.50,322.50 150.32,328.94 142.81,331.39 C140.44,332.16 134.99,333.29 130.71,333.90 ZM 196.50 382.45 C195.40,383.70 193.38,384.95 192.00,385.23 C189.29,385.77 180.73,384.50 177.50,383.08 C176.40,382.60 172.35,381.20 168.50,379.97 C155.91,375.95 155.94,375.00 168.63,375.00 C180.61,375.00 195.57,371.98 205.50,367.56 C208.25,366.34 212.96,364.25 215.96,362.92 C223.30,359.67 234.80,352.08 244.29,344.21 C252.77,337.19 255.58,336.37 249.06,342.82 C246.83,345.03 245.00,347.26 245.00,347.76 C245.00,348.27 243.88,349.19 242.50,349.82 C241.12,350.44 240.00,351.53 239.99,352.23 C239.99,352.93 238.52,355.08 236.74,357.00 C234.95,358.92 232.25,362.17 230.73,364.21 C229.10,366.39 226.63,368.29 224.73,368.81 C222.95,369.31 219.28,371.12 216.57,372.84 C213.86,374.57 210.04,376.27 208.07,376.62 C203.28,377.49 198.93,379.68 196.50,382.45 ZM 180.39 306.42 C179.80,307.97 177.00,309.41 177.00,308.17 C177.00,307.17 179.17,305.00 180.17,305.00 C180.59,305.00 180.69,305.64 180.39,306.42 Z" fill="rgb(94,55,157)"/>
<path d="M 196.50 382.45 C198.93,379.68 203.28,377.49 208.07,376.62 C210.04,376.27 213.86,374.57 216.57,372.84 C219.28,371.12 222.95,369.31 224.73,368.81 C226.63,368.29 229.10,366.39 230.73,364.21 C232.25,362.17 234.95,358.92 236.74,357.00 C238.52,355.08 239.99,352.93 239.99,352.23 C240.00,351.53 241.12,350.44 242.50,349.82 C243.88,349.19 245.00,348.27 245.00,347.76 C245.00,347.26 246.83,345.03 249.06,342.82 C255.58,336.37 252.77,337.19 244.29,344.21 C242.49,345.71 240.62,347.19 238.71,348.64 C243.47,344.96 248.42,340.77 253.50,336.12 C276.41,315.15 291.07,299.19 306.45,278.50 C309.31,274.65 313.55,269.59 315.86,267.25 C318.18,264.91 319.56,263.00 318.92,263.00 C318.18,263.00 318.35,262.19 319.39,260.75 C320.29,259.51 321.48,257.43 322.04,256.12 C322.98,253.89 323.17,253.84 324.85,255.37 C325.85,256.27 327.69,257.00 328.96,257.00 C331.29,257.00 338.02,253.40 337.98,252.17 C337.97,251.80 335.99,249.54 333.57,247.15 L 329.19 242.79 L 330.68 239.15 C331.50,237.14 334.38,230.87 337.08,225.21 C339.79,219.55 342.00,214.26 342.00,213.46 C342.00,212.66 342.50,212.00 343.10,212.00 C343.88,212.00 344.08,217.53 343.79,230.89 C343.39,248.73 343.22,250.05 340.83,254.64 C334.69,266.43 330.70,273.61 329.51,275.00 C327.62,277.21 321.00,290.72 321.00,292.37 C321.00,294.16 323.17,295.00 327.83,295.00 C331.95,295.00 341.24,298.21 341.77,299.82 C342.42,301.75 336.04,313.18 330.02,320.88 C326.74,325.07 322.58,330.43 320.78,332.80 C317.64,336.91 307.77,346.72 301.48,351.99 C287.31,363.84 275.04,371.24 259.50,377.27 C246.39,382.36 244.42,382.98 234.60,385.09 C219.96,388.23 186.49,387.06 177.50,383.09 C176.54,382.66 173.32,381.53 169.95,380.43 C173.32,381.53 176.54,382.66 177.50,383.08 C180.73,384.50 189.29,385.77 192.00,385.23 C193.38,384.95 195.40,383.70 196.50,382.45 ZM 189.16 357.73 C202.21,353.83 223.00,342.48 223.00,338.86 C223.00,338.39 221.68,338.00 220.07,338.00 C217.99,338.00 216.55,337.17 215.12,335.17 L 213.10 332.34 L 215.45 327.69 L 217.80 323.05 L 214.65 322.47 C212.92,322.14 208.80,322.02 205.51,322.19 L 199.51 322.50 L 199.51 328.00 C199.50,333.03 199.30,333.53 197.11,333.84 C195.79,334.02 193.45,333.23 191.86,332.05 C189.58,330.37 188.58,330.15 186.98,331.01 C185.41,331.85 184.84,331.76 184.40,330.59 C183.57,328.45 188.79,322.00 191.37,321.98 C194.75,321.96 196.03,320.62 196.69,316.42 L 197.30 312.50 L 194.90 314.46 C193.58,315.54 190.48,318.28 188.00,320.55 C184.51,323.74 178.73,327.59 172.44,331.12 C179.36,327.09 185.91,322.36 191.00,317.55 C195.12,313.66 200.98,308.32 204.00,305.69 C207.02,303.06 212.20,297.60 215.50,293.55 C223.26,284.04 223.87,283.68 227.87,286.22 L 231.08 288.24 L 230.39 302.12 C229.90,311.90 230.02,316.00 230.79,316.00 C233.01,316.00 238.93,311.79 239.58,309.75 C240.22,307.74 249.97,295.23 251.00,295.10 C251.27,295.07 253.19,296.51 255.25,298.31 C258.76,301.38 260.25,305.00 258.00,305.00 C256.05,305.00 255.49,305.18 254.23,306.23 C253.53,306.81 253.22,308.13 253.55,309.17 C254.35,311.68 246.56,320.65 233.53,332.21 C220.13,344.12 203.23,353.79 189.16,357.73 ZM 173.59 313.55 C174.49,312.46 174.47,311.73 174.05,310.64 C173.54,309.30 173.55,307.74 174.07,306.92 C174.57,306.14 174.98,304.96 174.98,304.29 C175.01,302.32 170.07,298.34 166.15,297.16 C164.14,296.56 161.02,294.71 159.21,293.05 L 155.93 290.05 L 148.44 296.99 C138.12,306.56 135.85,308.18 124.46,314.08 C118.08,317.38 112.43,319.71 107.13,321.14 C112.06,319.73 117.46,317.47 123.85,314.26 C136.90,307.71 144.20,301.84 160.64,284.65 C167.15,277.84 172.57,273.00 173.67,273.00 C174.71,273.00 176.61,273.74 177.89,274.63 C179.17,275.53 183.43,277.83 187.34,279.73 C192.88,282.43 195.30,283.09 198.22,282.70 C201.66,282.24 201.88,282.35 200.95,284.10 C200.39,285.14 199.54,286.00 199.06,286.00 C198.58,286.00 196.54,288.29 194.53,291.09 C190.49,296.72 180.89,306.90 173.59,313.55 ZM 180.39 306.42 C180.69,305.64 180.59,305.00 180.17,305.00 C179.17,305.00 177.00,307.17 177.00,308.17 C177.00,309.41 179.80,307.97 180.39,306.42 ZM 167.92 318.31 C164.33,320.96 159.04,324.06 153.82,326.68 C158.98,324.09 164.24,321.01 167.92,318.31 ZM 153.82 326.68 C149.85,328.67 145.92,330.37 142.81,331.39 C145.91,330.38 149.84,328.67 153.82,326.68 Z" fill="rgb(155,52,174)"/>
<path d="M 334.60 314.43 C338.85,307.93 342.25,301.25 341.77,299.82 C341.24,298.21 331.95,295.00 327.83,295.00 C323.17,295.00 321.00,294.16 321.00,292.37 C321.00,290.72 327.62,277.21 329.51,275.00 C330.70,273.61 334.69,266.43 340.83,254.64 C343.22,250.05 343.39,248.73 343.79,230.89 C344.08,217.53 343.88,212.00 343.10,212.00 C342.50,212.00 342.00,212.66 342.00,213.46 C342.00,214.26 339.79,219.55 337.08,225.21 C334.38,230.87 331.50,237.14 330.68,239.15 L 329.19 242.79 L 333.57 247.15 C335.99,249.54 337.97,251.80 337.98,252.17 C338.02,253.40 331.29,257.00 328.96,257.00 C327.69,257.00 325.85,256.27 324.85,255.37 C323.17,253.84 322.98,253.89 322.04,256.12 C321.48,257.43 320.29,259.51 319.39,260.75 C318.35,262.19 318.18,263.00 318.92,263.00 C319.56,263.00 318.18,264.91 315.86,267.25 C313.55,269.59 309.31,274.65 306.45,278.50 C294.17,295.01 282.36,308.51 266.44,323.95 C273.28,317.26 279.14,311.11 281.79,307.66 C283.28,305.72 287.69,300.39 291.58,295.81 C306.85,277.87 321.04,256.90 330.14,238.81 C338.74,221.71 341.79,214.93 342.42,211.45 C342.82,209.28 343.71,206.60 344.40,205.50 C345.46,203.81 347.77,196.85 354.06,176.43 C355.78,170.83 355.66,170.74 347.75,171.47 C343.76,171.83 337.88,172.78 334.67,173.57 C331.46,174.36 328.65,175.00 328.42,175.00 C326.76,175.00 329.66,170.99 341.28,157.23 C348.58,148.58 356.11,139.48 358.02,137.00 C359.92,134.52 362.32,131.60 363.34,130.50 C364.36,129.40 367.25,125.80 369.76,122.50 C375.28,115.25 379.11,111.00 380.14,111.00 C380.56,111.00 381.65,112.69 382.56,114.75 C383.47,116.81 388.89,128.02 394.61,139.66 C400.32,151.30 405.00,161.23 405.00,161.71 C405.00,162.20 407.26,166.99 410.03,172.35 C412.79,177.72 414.81,182.50 414.51,182.98 C413.85,184.05 410.72,183.18 401.00,179.22 C396.88,177.54 392.49,175.87 391.26,175.52 C391.15,175.48 391.05,175.45 390.95,175.42 C390.42,175.27 390.00,175.14 389.61,175.22 C387.92,175.56 387.04,179.93 381.91,203.50 C380.71,209.00 378.51,217.32 377.01,222.00 C375.51,226.68 373.59,232.75 372.75,235.50 C365.68,258.62 348.41,294.00 334.60,314.43 ZM 173.59 313.55 C180.89,306.90 190.49,296.72 194.53,291.09 C196.54,288.29 198.58,286.00 199.06,286.00 C199.54,286.00 200.39,285.14 200.95,284.10 C201.88,282.35 201.66,282.24 198.22,282.70 C195.30,283.09 192.88,282.43 187.34,279.73 C183.43,277.83 179.17,275.53 177.89,274.63 C176.61,273.74 174.71,273.00 173.67,273.00 C172.57,273.00 167.15,277.84 160.64,284.65 C149.43,296.37 142.47,302.83 135.04,307.83 C138.22,305.54 141.33,302.73 146.24,298.02 C159.12,285.70 175.06,267.75 183.39,256.18 C186.64,251.68 189.79,248.04 190.39,248.08 C192.33,248.22 210.49,268.89 210.75,271.24 C211.23,275.57 186.55,303.38 171.99,315.11 C172.70,314.50 173.22,313.99 173.59,313.55 ZM 212.10 347.67 C219.59,343.32 226.98,338.04 233.53,332.21 C246.56,320.65 254.35,311.68 253.55,309.17 C253.22,308.13 253.53,306.81 254.23,306.23 C255.49,305.18 256.05,305.00 258.00,305.00 C260.25,305.00 258.76,301.38 255.25,298.31 C253.19,296.51 251.27,295.07 251.00,295.10 C249.97,295.23 240.22,307.74 239.58,309.75 C238.93,311.79 233.01,316.00 230.79,316.00 C230.02,316.00 229.90,311.90 230.39,302.12 L 231.08 288.24 L 227.87 286.22 C223.87,283.68 223.26,284.04 215.50,293.55 C212.20,297.60 207.02,303.06 204.00,305.69 C200.98,308.32 195.12,313.66 191.00,317.55 C185.91,322.36 179.36,327.09 172.44,331.12 L 172.44 331.12 C165.75,334.87 158.50,338.24 152.81,340.06 C150.23,340.89 147.82,341.60 145.51,342.20 C172.37,334.93 190.46,321.31 219.65,287.25 C225.43,280.51 230.75,275.00 231.47,275.00 C232.19,275.00 234.97,276.95 237.64,279.34 C244.86,285.79 259.07,297.00 260.03,297.00 C261.58,297.00 262.12,300.90 260.90,303.21 C259.20,306.41 246.17,321.57 240.35,327.12 C232.45,334.64 222.28,341.92 212.10,347.67 ZM 118.09 344.47 C115.00,344.24 111.68,343.87 108.00,343.38 L 103.50 342.79 L 107.00 345.19 C108.93,346.51 112.53,348.53 115.00,349.68 C118.89,351.48 121.99,352.71 132.45,356.60 C122.06,352.74 118.94,351.51 115.43,349.88 C113.20,348.85 111.08,348.00 110.73,348.00 C110.37,348.00 108.04,346.77 105.54,345.26 C100.73,342.35 99.49,340.30 103.25,341.46 C108.00,342.92 113.06,343.93 118.09,344.47 ZM 93.05 322.84 C89.89,322.72 86.74,322.26 83.50,321.48 C75.63,319.58 75.25,319.62 78.38,322.08 C81.09,324.22 89.68,328.08 96.33,330.35 C91.10,328.72 86.13,326.58 79.25,323.23 C74.00,320.67 72.01,318.17 76.25,319.44 C82.72,321.39 88.05,322.55 93.05,322.84 ZM 148.97 328.97 C150.54,328.27 152.17,327.50 153.81,326.68 L 153.82 326.68 C156.85,325.16 159.90,323.48 162.63,321.82 C158.11,324.71 153.61,327.07 149.02,328.95 ZM 130.71 333.90 C123.17,334.96 119.69,335.12 114.41,334.34 C120.11,335.11 123.97,334.85 130.71,333.90 ZM 215.96 362.92 C218.90,361.62 223.03,359.29 227.33,356.59 C223.09,359.29 219.14,361.51 215.96,362.92 Z" fill="rgb(211,101,182)"/>
<path d="M 0.00 250.00 L 0.00 0.00 L 250.00 0.00 L 500.00 0.00 L 500.00 250.00 L 500.00 500.00 L 250.00 500.00 L 0.00 500.00 L 0.00 250.00 ZM 234.60 385.09 C244.42,382.98 246.39,382.36 259.50,377.27 C275.04,371.24 287.31,363.84 301.48,351.99 C307.77,346.72 317.64,336.91 320.78,332.80 C322.58,330.43 326.68,325.12 329.87,321.00 C344.19,302.54 364.84,261.35 372.75,235.50 C373.59,232.75 375.51,226.68 377.01,222.00 C378.51,217.32 380.71,209.00 381.91,203.50 C388.42,173.58 388.08,174.60 391.26,175.52 C392.49,175.87 396.88,177.54 401.00,179.22 C410.72,183.18 413.85,184.05 414.51,182.98 C414.81,182.50 412.79,177.72 410.03,172.35 C407.26,166.99 405.00,162.20 405.00,161.71 C405.00,161.23 400.32,151.30 394.61,139.66 C388.89,128.02 383.47,116.81 382.56,114.75 C381.65,112.69 380.56,111.00 380.14,111.00 C379.11,111.00 375.28,115.25 369.76,122.50 C367.25,125.80 364.36,129.40 363.34,130.50 C362.32,131.60 359.92,134.52 358.02,137.00 C356.11,139.48 348.58,148.58 341.28,157.23 C329.66,170.99 326.76,175.00 328.42,175.00 C328.65,175.00 331.46,174.36 334.67,173.57 C337.88,172.78 343.76,171.83 347.75,171.47 C355.66,170.74 355.78,170.83 354.06,176.43 C347.77,196.85 345.46,203.81 344.40,205.50 C343.71,206.60 342.82,209.28 342.42,211.45 C341.79,214.93 338.74,221.71 330.14,238.81 C321.04,256.90 306.85,277.87 291.58,295.81 C287.69,300.39 283.28,305.72 281.79,307.66 C275.96,315.25 254.58,335.91 241.50,346.59 C234.40,352.39 222.36,360.09 215.96,362.92 C212.96,364.25 208.25,366.34 205.50,367.56 C195.57,371.98 180.61,375.00 168.63,375.00 C155.94,375.00 155.91,375.95 168.50,379.97 C172.35,381.20 176.40,382.60 177.50,383.09 C186.49,387.06 219.96,388.23 234.60,385.09 ZM 185.91 358.55 C201.86,355.01 225.24,341.51 240.35,327.12 C246.17,321.57 259.20,306.41 260.90,303.21 C262.12,300.90 261.58,297.00 260.03,297.00 C259.07,297.00 244.86,285.79 237.64,279.34 C234.97,276.95 232.19,275.00 231.47,275.00 C230.75,275.00 225.43,280.51 219.65,287.25 C188.59,323.50 170.09,336.60 140.21,343.53 C129.59,346.00 115.42,345.20 103.25,341.46 C99.49,340.30 100.73,342.35 105.54,345.26 C108.04,346.77 110.37,348.00 110.73,348.00 C111.08,348.00 113.20,348.85 115.43,349.88 C118.95,351.51 122.07,352.74 132.50,356.62 C133.60,357.03 138.10,358.15 142.50,359.12 C152.49,361.31 174.80,361.02 185.91,358.55 ZM 130.71 333.90 C144.96,331.88 157.60,326.25 170.79,316.05 C185.15,304.96 211.24,275.70 210.75,271.24 C210.49,268.89 192.33,248.22 190.39,248.08 C189.79,248.04 186.64,251.68 183.39,256.18 C175.06,267.75 159.12,285.70 146.24,298.02 C136.55,307.29 133.89,309.22 123.87,314.25 C104.20,324.12 95.08,325.11 76.25,319.44 C72.01,318.17 74.00,320.67 79.25,323.23 C91.96,329.42 98.16,331.47 111.50,333.87 C118.61,335.14 121.88,335.15 130.71,333.90 Z" fill="rgb(254,254,254)"/>
</g>
</svg>